<svg width="1920" height="1080" viewBox="0 0 1920 1080" fill="none" xmlns="http://www.w3.org/2000/svg">
    <g clip-path="url(#clip0)">
        <rect width="1920" height="1080" fill="white"></rect>
        <rect x="960" width="960" height="1080" fill="#7BD5E1"></rect>
        <path fill-rule="evenodd" clip-rule="evenodd" d="M1531.06 238.721H1560.92V208.859H1531.06V238.721ZM1531.06 272.565H1560.92V242.703H1531.06V272.565ZM1531.06 306.412H1560.92V276.55H1531.06V306.412ZM1531.06 340.256H1560.92V310.394H1531.06V340.256ZM1531.06 374.1H1560.92V344.238H1531.06V374.1ZM1531.06 407.944H1560.92V378.082H1531.06V407.944ZM1531.06 441.788H1560.92V411.926H1531.06V441.788ZM1531.06 475.632H1560.92V445.77H1531.06V475.632ZM1531.06 509.48H1560.92V479.617H1531.06V509.48ZM1497.21 509.476H1527.07V479.614H1497.21V509.476ZM1463.37 509.476H1493.23V479.614H1463.37V509.476ZM1429.52 509.476H1459.38V479.614H1429.52V509.476ZM1395.68 509.476H1425.54V479.614H1395.68V509.476ZM1361.83 509.476H1391.69V479.614H1361.83V509.476ZM1327.99 509.476H1357.85V479.614H1327.99V509.476ZM1294.14 509.476H1324.01V479.614H1294.14V509.476ZM1260.3 509.476H1290.16V479.614H1260.3V509.476ZM1260.3 475.632H1290.16V445.77H1260.3V475.632ZM1260.3 441.788H1290.16V411.926H1260.3V441.788ZM1260.3 407.944H1290.16V378.082H1260.3V407.944ZM1260.3 374.1H1290.16V344.238H1260.3V374.1ZM1260.3 340.253H1290.16V310.391H1260.3V340.253ZM1260.3 306.409H1290.16V276.547H1260.3V306.409ZM1260.3 272.565H1290.16V242.703H1260.3V272.565ZM1260.3 238.721H1290.16V208.859H1260.3V238.721ZM1294.14 238.721H1324.01V208.859H1294.14V238.721ZM1327.99 238.721H1357.85V208.859H1327.99V238.721ZM1361.83 238.721H1391.7V208.859H1361.83V238.721ZM1395.68 238.721H1425.54V208.859H1395.68V238.721ZM1429.52 238.721H1459.38V208.859H1429.52V238.721ZM1463.37 238.721H1493.23V208.859H1463.37V238.721ZM1497.21 272.565H1527.07V242.703H1497.21V272.565ZM1497.21 306.409H1527.07V276.547H1497.21V306.409ZM1497.21 340.253H1527.07V310.391H1497.21V340.253ZM1497.21 374.1H1527.07V344.238H1497.21V374.1ZM1497.21 407.944H1527.07V378.082H1497.21V407.944ZM1497.21 441.788H1527.07V411.926H1497.21V441.788ZM1497.21 475.632H1527.07V445.77H1497.21V475.632ZM1463.37 475.632H1493.23V445.77H1463.37V475.632ZM1429.52 475.632H1459.38V445.77H1429.52V475.632ZM1395.68 475.632H1425.54V445.77H1395.68V475.632ZM1361.83 475.632H1391.69V445.77H1361.83V475.632ZM1327.99 475.632H1357.85V445.77H1327.99V475.632ZM1294.14 475.632H1324.01V445.77H1294.14V475.632ZM1294.14 441.788H1324.01V411.926H1294.14V441.788ZM1294.14 407.944H1324.01V378.082H1294.14V407.944ZM1294.14 374.1H1324.01V344.238H1294.14V374.1ZM1294.14 340.256H1324.01V310.394H1294.14V340.256ZM1294.14 306.412H1324.01V276.55H1294.14V306.412ZM1294.14 272.565H1324.01V242.703H1294.14V272.565ZM1327.99 272.565H1357.85V242.703H1327.99V272.565ZM1361.83 272.565H1391.7V242.703H1361.83V272.565ZM1395.68 272.565H1425.54V242.703H1395.68V272.565ZM1429.52 272.565H1459.38V242.703H1429.52V272.565ZM1463.37 272.565H1493.23V242.703H1463.37V272.565ZM1463.37 306.409H1493.23V276.547H1463.37V306.409ZM1463.37 340.253H1493.23V310.391H1463.37V340.253ZM1463.37 374.1H1493.23V344.238H1463.37V374.1ZM1463.37 407.944H1493.23V378.082H1463.37V407.944ZM1463.37 441.788H1493.23V411.926H1463.37V441.788ZM1429.52 441.788H1459.38V411.926H1429.52V441.788ZM1395.68 441.788H1425.54V411.926H1395.68V441.788ZM1361.83 441.788H1391.69V411.926H1361.83V441.788ZM1327.99 441.788H1357.85V411.926H1327.99V441.788ZM1327.99 407.944H1357.85V378.082H1327.99V407.944ZM1327.99 374.1H1357.85V344.238H1327.99V374.1ZM1327.99 340.256H1357.85V310.394H1327.99V340.256ZM1327.99 306.412H1357.85V276.55H1327.99V306.412ZM1361.83 306.412H1391.7V276.55H1361.83V306.412ZM1395.68 306.412H1425.54V276.55H1395.68V306.412ZM1429.52 306.409H1459.38V276.547H1429.52V306.409ZM1429.52 340.253H1459.38V310.391H1429.52V340.253ZM1429.52 374.1H1459.38V344.238H1429.52V374.1ZM1429.52 407.944H1459.38V378.082H1429.52V407.944ZM1395.68 407.944H1425.54V378.082H1395.68V407.944ZM1361.83 407.944H1391.7V378.082H1361.83V407.944ZM1361.83 374.1H1391.7V344.238H1361.83V374.1ZM1361.83 340.256H1391.7V310.394H1361.83V340.256ZM1395.68 374.1H1425.54V344.238H1395.68V374.1ZM1395.68 340.253H1425.54V310.391H1395.68V340.253ZM1497.21 238.721H1527.07V208.859H1497.21V238.721ZM1590.22 208.859V204.877H1564.9V179.56H1560.92V204.877H1531.06V179.56H1527.07V204.877H1497.21V179.56H1493.23V204.877H1463.37V179.56H1459.38V204.877H1429.52V179.56H1425.54V204.877H1395.68V179.56H1391.7V204.877H1361.83V179.56H1357.85V204.877H1327.99V179.56H1324.01V204.877H1294.14V179.56H1290.16V204.877H1260.3V179.56H1256.32V204.877H1231V208.859H1256.32V238.721H1231V242.703H1256.32V272.565H1231V276.547H1256.32V306.412H1231V310.391H1256.32V340.256H1231V344.238H1256.32V374.1H1231V378.082H1256.32V407.944H1231V411.926H1256.32V441.788H1231V445.77H1256.32V475.632H1231V479.614H1256.32V509.479H1231V513.458H1256.32V538.778H1260.3V513.458H1290.16V538.778H1294.14V513.458H1324.01V538.778H1327.99V513.458H1357.85V538.778H1361.83V513.458H1391.7V538.778H1395.68V513.458H1425.54V538.778H1429.52V513.458H1459.38V538.778H1463.37V513.458H1493.23V538.778H1497.21V513.458H1527.07V538.778H1531.06V513.458H1560.92V538.778H1564.9V513.458H1590.22V509.479H1564.9V479.614H1590.22V475.632H1564.9V445.77H1590.22V441.788H1564.9V411.926H1590.22V407.944H1564.9V378.082H1590.22V374.1H1564.9V344.238H1590.22V340.256H1564.9V310.391H1590.22V306.412H1564.9V276.547H1590.22V272.565H1564.9V242.703H1590.22V238.721H1564.9V208.859H1590.22Z" fill="#00A5B9"></path>
        <path fill-rule="evenodd" clip-rule="evenodd" d="M2230.75 0V526.99C2075.24 649.831 1902.76 750.417 1715.19 812.893C1665.33 829.532 1613.86 843.499 1561.28 844.198C1508.69 844.903 1454.46 831.264 1413.97 797.755C1356.98 750.6 1335.65 664.973 1363.87 596.59C1390.11 532.99 1450.24 491.324 1499.93 443.706C1549.61 396.088 1593.15 327.376 1571.92 261.9C1562.49 232.797 1541.5 209.174 1525.33 183.21C1491.77 129.218 1479.59 62.5216 1490.65 0H2230.75Z" fill="#F8F4EB"></path>
        <path fill-rule="evenodd" clip-rule="evenodd" d="M1624.32 329.991L1394.53 559.782C1397.94 564.449 1401.56 568.965 1405.49 573.333L1637.87 340.951C1633.5 337.027 1628.99 333.396 1624.32 329.991ZM1431.26 596.513L1661.05 366.722C1657.65 362.058 1654.02 357.538 1650.09 353.17L1417.71 585.555C1422.08 589.479 1426.59 593.107 1431.26 596.513ZM1462.48 614.323L1678.86 397.936C1676.45 392.419 1673.72 386.94 1670.68 381.606L1446.14 606.14C1451.48 609.176 1456.95 611.915 1462.48 614.323ZM1500.28 625.47L1690.01 435.742C1688.86 429.041 1687.34 422.41 1685.38 415.856L1480.4 620.838C1486.95 622.805 1493.58 624.321 1500.28 625.47ZM1548.27 626.504L1691.04 483.728C1692.08 475.213 1692.49 466.587 1692.26 457.995L1522.53 627.727C1531.12 627.949 1539.75 627.544 1548.27 626.504ZM1644.13 579.594C1662.83 560.892 1676.08 538.826 1683.9 515.312L1579.85 619.361C1603.36 611.546 1625.43 598.293 1644.13 579.594ZM1593.11 312.18L1376.72 528.567C1379.12 534.084 1381.87 539.566 1384.9 544.897L1609.44 320.362C1604.1 317.327 1598.62 314.588 1593.11 312.18ZM1555.3 301.036L1365.57 490.764C1366.72 497.466 1368.24 504.094 1370.2 510.648L1575.18 305.662C1568.63 303.702 1562.01 302.182 1555.3 301.036ZM1507.31 300L1364.54 442.776C1363.5 451.293 1363.09 459.92 1363.31 468.511L1533.05 298.776C1524.46 298.554 1515.83 298.96 1507.31 300ZM1475.73 307.146L1371.68 411.192C1379.49 387.677 1392.75 365.611 1411.45 346.913C1430.15 328.214 1452.22 314.958 1475.73 307.146Z" fill="#FFC561"></path>
        <text fill="#154D54" xml:space="preserve" style="white-space: pre" font-family="Montserrat" font-size="72" font-weight="bold" letter-spacing="0px"><tspan x="110" y="330.812">About this talk</tspan></text>
        <text fill="#202323" xml:space="preserve" style="white-space: pre" font-family="Raleway" font-size="48" font-weight="500" letter-spacing="0px"><tspan x="110" y="448.944">1. First point
</tspan><tspan x="110" y="534.944">2. Second point
</tspan><tspan x="110" y="620.944">3. Third point
</tspan><tspan x="110" y="706.944">4. Fourth point
</tspan><tspan x="110" y="792.944">5. Fifth point</tspan></text>
    </g>
    <defs>
        <clipPath id="clip0">
            <rect width="1920" height="1080" fill="white"></rect>
        </clipPath>
    </defs>
</svg>
